<?xml version="1.0" encoding="UTF-8" standalone="no"?>
<svg width="127px" height="127px" viewBox="0 0 127 127" version="1.1" xmlns="http://www.w3.org/2000/svg" xmlns:xlink="http://www.w3.org/1999/xlink">
    <!-- Generator: Sketch 39.1 (31720) - http://www.bohemiancoding.com/sketch -->
    <title>icon</title>
    <desc>Created with Sketch.</desc>
    <defs></defs>
    <g id="Page-1" stroke="none" stroke-width="1" fill="none" fill-rule="evenodd">
        <g id="icon" transform="translate(1.000000, 1.000000)">
            <g id="Group">
                <g id="Page-1">
                    <g id="jwt_logo">
                        <g id="Group">
                            <g>
                                <rect id="Rectangle-path" stroke="#5C666F" x="0" y="0" width="125" height="125" rx="62.5"></rect>
                                <circle id="Oval" fill="#EB5424" cx="62.5" cy="62.5" r="52.5"></circle>
                                <g id="Group-2" transform="translate(32.000000, 31.000000)" stroke="#5C666F" fill="#FFFFFF">
                                    <polygon id="Shape" points="35.9375 16.8125 35.9375 0 26.5625 0 26.5625 16.8125 31.25 23.25"></polygon>
                                    <polygon id="Shape" points="26.5625 45.6875 26.5625 62.5 35.9375 62.5 35.9375 45.6875 31.25 39.25"></polygon>
                                    <polygon id="Shape" points="35.9375 45.6875 45.8125 59.3125 53.4375 53.75 43.5 40.1875 35.9375 37.6875"></polygon>
                                    <polygon id="Shape" points="26.5625 16.8125 16.6875 3.1875 9.0625 8.75 19 22.3125 26.5625 24.8125"></polygon>
                                    <polygon id="Shape" points="19 22.3125 3 17.125 0.0625 26.0625 16.0625 31.25 23.6875 28.8125"></polygon>
                                    <polygon id="Shape" points="38.8125 33.6875 43.5 40.1875 59.5 45.375 62.4375 36.4375 46.4375 31.25"></polygon>
                                    <polygon id="Shape" points="46.4375 31.25 62.4375 26.0625 59.5 17.125 43.5 22.3125 38.8125 28.8125"></polygon>
                                    <polygon id="Shape" points="16.0625 31.25 0.0625 36.4375 3 45.375 19 40.1875 23.6875 33.6875"></polygon>
                                    <polygon id="Shape" points="19 40.1875 9.0625 53.75 16.6875 59.3125 26.5625 45.6875 26.5625 37.6875"></polygon>
                                    <polygon id="Shape" points="43.5 22.3125 53.4375 8.75 45.8125 3.1875 35.9375 16.8125 35.9375 24.8125"></polygon>
                                </g>
                                <g id="Shape" transform="translate(31.250000, 31.250000)"></g>
                            </g>
                        </g>
                    </g>
                </g>
            </g>
        </g>
    </g>
</svg>