<?xml version="1.0" encoding="UTF-8" standalone="no"?>
<svg width="43px" height="43px" viewBox="0 0 43 43" version="1.1" xmlns="http://www.w3.org/2000/svg" xmlns:xlink="http://www.w3.org/1999/xlink">
  <g id="Searchbar-quickstarts" stroke="none" stroke-width="1" fill="none" fill-rule="evenodd">
    <g id="3d" transform="translate(-615.000000, -380.000000)" fill="#FFFFFF">
      <g id="Group" transform="translate(615.000000, 380.000000)">
        <path d="M24,18.5 L24,2.5 C24,1.11928813 22.8807119,0 21.5,0 C20.1192881,0 19,1.11928813 19,2.5 L19,18.5 L3,18.5 C1.61928813,18.5 0.5,19.6192881 0.5,21 C0.5,22.3807119 1.61928813,23.5 3,23.5 L19,23.5 L19,39.9358042 C19,41.3165161 20.1192881,42.4358042 21.5,42.4358042 C22.8807119,42.4358042 24,41.3165161 24,39.9358042 L24,23.5 L40.4358042,23.5 C41.8165161,23.5 42.9358042,22.3807119 42.9358042,21 C42.9358042,19.6192881 41.8165161,18.5 40.4358042,18.5 L24,18.5 Z" id="Combined-Shape"></path>
      </g>
    </g>
  </g>
</svg>