<?xml version="1.0" encoding="UTF-8" standalone="no"?>
<svg width="151px" height="168px" viewBox="0 0 151 168" version="1.1" xmlns="http://www.w3.org/2000/svg" xmlns:xlink="http://www.w3.org/1999/xlink" xmlns:sketch="http://www.bohemiancoding.com/sketch/ns">
    <!-- Generator: Sketch 3.3.3 (12081) - http://www.bohemiancoding.com/sketch -->
    <title>auth0</title>
    <desc>Created with Sketch.</desc>
    <defs></defs>
    <g id="Page-1" stroke="none" stroke-width="1" fill="none" fill-rule="evenodd" sketch:type="MSPage">
        <g id="auth0" sketch:type="MSLayerGroup" fill="#333333">
            <g id="Group" sketch:type="MSShapeGroup">
                <path d="M31,135.8 L30.9,135.8 L75.1,167.8 L119.2,135.8 L75.1,103.7 L31,135.8 Z" id="Shape"></path>
                <path d="M3.7,51.9 L3.7,51.9 C-6.6,83.6 5.3,117.2 31,135.8 L31,135.8 L47.9,83.9 L3.7,51.9 L58.2,51.9 L75.1,0 L20.5,0 L3.7,51.9 L3.7,51.9 Z" id="Shape"></path>
                <path d="M146.5,51.9 L146.5,51.9 L129.6,0 L75.1,0 L92,51.9 L146.5,51.9 L102.4,84 L119.2,135.9 C146.2,116.2 156.3,82 146.5,51.9 L146.5,51.9 Z" id="Shape"></path>
            </g>
        </g>
    </g>
</svg>