<?xml version="1.0" encoding="UTF-8" standalone="no"?>
<svg width="277px" height="180px" viewBox="0 0 277 180" version="1.1" xmlns="http://www.w3.org/2000/svg" xmlns:xlink="http://www.w3.org/1999/xlink" xmlns:sketch="http://www.bohemiancoding.com/sketch/ns">
    <!-- Generator: Sketch 3.5 (25232) - http://www.bohemiancoding.com/sketch -->
    <title>APIExplorer</title>
    <desc>Created with Sketch.</desc>
    <defs>
        <rect id="path-1" x="0" y="0" width="277" height="180" rx="3"></rect>
    </defs>
    <g id="Page-1" stroke="none" stroke-width="1" fill="none" fill-rule="evenodd" sketch:type="MSPage">
        <g id="APIExplorer" sketch:type="MSLayerGroup">
            <g id="Api">
                <mask id="mask-2" sketch:name="Rectangle 23" fill="white">
                    <use xlink:href="#path-1"></use>
                </mask>
                <use id="Rectangle-23" fill-opacity="0.4" fill="#D8D8D8" sketch:type="MSShapeGroup" xlink:href="#path-1"></use>
                <g id="Group" mask="url(#mask-2)">
                    <g transform="translate(17.000000, 24.000000)">
                        <rect id="Rectangle-26" stroke="none" fill="#FFFFFF" fill-rule="evenodd" sketch:type="MSShapeGroup" x="0" y="0" width="247" height="318" rx="3"></rect>
                        <circle id="Oval-21" stroke="none" fill="#D8D8D8" fill-rule="evenodd" sketch:type="MSShapeGroup" cx="28" cy="13" r="5"></circle>
                        <circle id="Oval-23" stroke="none" fill="#D8D8D8" fill-rule="evenodd" sketch:type="MSShapeGroup" cx="41" cy="13" r="5"></circle>
                        <circle id="Oval-22" stroke="none" fill="#D8D8D8" fill-rule="evenodd" sketch:type="MSShapeGroup" cx="15" cy="13" r="5"></circle>
                        <g id="Group" stroke="none" stroke-width="1" fill="none" fill-rule="evenodd" sketch:type="MSLayerGroup" transform="translate(19.000000, 43.000000)">
                            <rect id="Rectangle-31" fill="#F1F1F1" sketch:type="MSShapeGroup" x="60" y="23" width="148" height="8"></rect>
                            <rect id="Rectangle-32" fill="#F1F1F1" sketch:type="MSShapeGroup" x="60" y="34" width="148" height="8"></rect>
                            <rect id="Rectangle-34" fill="#F1F1F1" sketch:type="MSShapeGroup" x="60" y="45" width="148" height="8"></rect>
                            <rect id="Rectangle-35" fill="#F1F1F1" sketch:type="MSShapeGroup" x="60" y="56" width="148" height="8"></rect>
                            <rect id="Rectangle-36" fill="#F1F1F1" sketch:type="MSShapeGroup" x="60" y="67" width="148" height="8"></rect>
                            <rect id="Rectangle-37" fill="#F1F1F1" sketch:type="MSShapeGroup" x="60" y="78" width="148" height="8"></rect>
                            <rect id="Rectangle-38" fill="#F1F1F1" sketch:type="MSShapeGroup" x="60" y="89" width="148" height="8"></rect>
                            <g stroke="#44C7F4" fill="#D8F3FD" sketch:type="MSShapeGroup">
                                <rect id="Rectangle-30" x="0" y="0" width="46" height="97" rx="3"></rect>
                                <rect id="Rectangle-38" x="9" y="10" width="29" height="2"></rect>
                                <rect id="Rectangle-39" x="9" y="20" width="29" height="2"></rect>
                                <rect id="Rectangle-40" x="9" y="30" width="29" height="2"></rect>
                                <rect id="Rectangle-41" x="9" y="40" width="29" height="2"></rect>
                                <rect id="Rectangle-42" x="9" y="50" width="29" height="2"></rect>
                                <rect id="Rectangle-43" x="9" y="60" width="29" height="2"></rect>
                                <rect id="Rectangle-44" x="9" y="70" width="29" height="2"></rect>
                                <rect id="Rectangle-45" x="9" y="80" width="29" height="2"></rect>
                            </g>
                        </g>
                        <path d="M0.5,25.5 L246.5,25.5" id="Line" stroke="#EBEBEB" stroke-width="1" stroke-linecap="square" fill="none" sketch:type="MSShapeGroup"></path>
                    </g>
                </g>
            </g>
            <path d="M106.788,77 L103.56,68.996 L102.324,68.996 L99.108,77 L100.248,77 L100.956,75.224 L104.94,75.224 L105.648,77 L106.788,77 Z M104.64,74.336 L101.244,74.336 L102.948,70.028 L104.64,74.336 Z M108.828,77 L108.828,73.82 L111.048,73.82 C112.632,73.82 113.556,72.716 113.556,71.408 C113.556,70.1 112.656,68.996 111.048,68.996 L107.832,68.996 L107.832,77 L108.828,77 Z M110.928,72.932 L108.828,72.932 L108.828,69.884 L110.928,69.884 C111.876,69.884 112.524,70.508 112.524,71.408 C112.524,72.308 111.876,72.932 110.928,72.932 L110.928,72.932 Z M115.872,77 L115.872,68.996 L114.876,68.996 L114.876,77 L115.872,77 Z M126.084,77 L126.084,76.112 L121.836,76.112 L121.836,73.352 L126,73.352 L126,72.464 L121.836,72.464 L121.836,69.884 L126.084,69.884 L126.084,68.996 L120.84,68.996 L120.84,77 L126.084,77 Z M132.432,77 L130.2,74.024 L132.3,71.204 L131.256,71.204 L129.648,73.412 L128.04,71.204 L126.996,71.204 L129.096,74.024 L126.876,77 L127.908,77 L129.648,74.624 L131.388,77 L132.432,77 Z M136.32,77.144 C137.844,77.144 138.9,75.968 138.9,74.096 C138.9,72.212 137.844,71.06 136.32,71.06 C135.504,71.06 134.784,71.48 134.364,72.068 L134.364,71.204 L133.464,71.204 L133.464,79.208 L134.364,79.208 L134.364,76.124 C134.832,76.772 135.528,77.144 136.32,77.144 L136.32,77.144 Z M136.092,76.34 C135.384,76.34 134.676,75.908 134.364,75.404 L134.364,72.788 C134.676,72.284 135.384,71.864 136.092,71.864 C137.256,71.864 137.952,72.812 137.952,74.096 C137.952,75.38 137.256,76.34 136.092,76.34 L136.092,76.34 Z M141.228,77 L141.228,68.996 L140.328,68.996 L140.328,77 L141.228,77 Z M145.56,77.144 C147.324,77.144 148.428,75.776 148.428,74.096 C148.428,72.416 147.324,71.06 145.56,71.06 C143.796,71.06 142.692,72.416 142.692,74.096 C142.692,75.776 143.796,77.144 145.56,77.144 L145.56,77.144 Z M145.56,76.34 C144.324,76.34 143.628,75.284 143.628,74.096 C143.628,72.92 144.324,71.864 145.56,71.864 C146.796,71.864 147.48,72.92 147.48,74.096 C147.48,75.284 146.796,76.34 145.56,76.34 L145.56,76.34 Z M150.792,77 L150.792,72.896 C151.056,72.428 151.812,71.972 152.364,71.972 C152.508,71.972 152.616,71.984 152.724,72.008 L152.724,71.084 C151.932,71.084 151.26,71.528 150.792,72.14 L150.792,71.204 L149.892,71.204 L149.892,77 L150.792,77 Z M156.468,77.144 C157.416,77.144 158.196,76.832 158.772,76.256 L158.34,75.668 C157.884,76.136 157.212,76.4 156.552,76.4 C155.304,76.4 154.536,75.488 154.464,74.396 L159.156,74.396 L159.156,74.168 C159.156,72.428 158.124,71.06 156.372,71.06 C154.716,71.06 153.516,72.416 153.516,74.096 C153.516,75.908 154.752,77.144 156.468,77.144 L156.468,77.144 Z M158.268,73.736 L154.464,73.736 C154.512,72.848 155.124,71.804 156.36,71.804 C157.68,71.804 158.256,72.872 158.268,73.736 L158.268,73.736 Z M161.508,77 L161.508,72.896 C161.772,72.428 162.528,71.972 163.08,71.972 C163.224,71.972 163.332,71.984 163.44,72.008 L163.44,71.084 C162.648,71.084 161.976,71.528 161.508,72.14 L161.508,71.204 L160.608,71.204 L160.608,77 L161.508,77 Z" id="API-Explorer" fill="#4A4A4A" sketch:type="MSShapeGroup"></path>
        </g>
    </g>
</svg>