<?xml version="1.0" encoding="UTF-8" standalone="no"?>
<svg width="277px" height="180px" viewBox="0 0 277 180" version="1.1" xmlns="http://www.w3.org/2000/svg" xmlns:xlink="http://www.w3.org/1999/xlink" xmlns:sketch="http://www.bohemiancoding.com/sketch/ns">
    <!-- Generator: Sketch 3.5 (25232) - http://www.bohemiancoding.com/sketch -->
    <title>Postman</title>
    <desc>Created with Sketch.</desc>
    <defs>
        <rect id="path-1" x="0" y="0" width="277" height="180" rx="3"></rect>
    </defs>
    <g id="Page-1" stroke="none" stroke-width="1" fill="none" fill-rule="evenodd" sketch:type="MSPage">
        <g id="Postman" sketch:type="MSLayerGroup">
            <g id="Rectangle-23-+-Rectangle-27">
                <mask id="mask-2" sketch:name="Rectangle 23" fill="white">
                    <use xlink:href="#path-1"></use>
                </mask>
                <use id="Rectangle-23" fill-opacity="0.4" fill="#D8D8D8" sketch:type="MSShapeGroup" xlink:href="#path-1"></use>
                <g id="Group" mask="url(#mask-2)">
                    <g transform="translate(17.000000, 24.000000)">
                        <rect id="Rectangle-26" stroke="none" fill="#FFFFFF" fill-rule="evenodd" sketch:type="MSShapeGroup" x="0" y="0" width="247" height="318" rx="3"></rect>
                        <circle id="Oval-21" stroke="none" fill="#D8D8D8" fill-rule="evenodd" sketch:type="MSShapeGroup" cx="28" cy="13" r="5"></circle>
                        <circle id="Oval-23" stroke="none" fill="#D8D8D8" fill-rule="evenodd" sketch:type="MSShapeGroup" cx="41" cy="13" r="5"></circle>
                        <circle id="Oval-22" stroke="none" fill="#D8D8D8" fill-rule="evenodd" sketch:type="MSShapeGroup" cx="15" cy="13" r="5"></circle>
                        <g id="Group" stroke="none" stroke-width="1" fill="none" fill-rule="evenodd" sketch:type="MSLayerGroup" transform="translate(23.000000, 43.000000)">
                            <g stroke="#E4E4E4" id="Rectangle-30" fill="#F1F1F1" sketch:type="MSShapeGroup">
                                <rect x="0" y="0" width="208" height="97" rx="3"></rect>
                            </g>
                        </g>
                        <g id="Group" stroke="none" stroke-width="1" fill="none" fill-rule="evenodd" sketch:type="MSLayerGroup" transform="translate(80.000000, 43.000000)">
                            <g transform="translate(0.000000, 15.000000)" stroke="#E4E4E4" id="Rectangle-30" fill="#FFFFFF" sketch:type="MSShapeGroup">
                                <rect x="0" y="0" width="151" height="83" rx="3"></rect>
                            </g>
                            <g transform="translate(75.500000, 14.500000) scale(1, -1) translate(-75.500000, -14.500000) " stroke="#E4E4E4" id="Rectangle-30" fill="#FFFFFF" sketch:type="MSShapeGroup">
                                <rect x="0" y="0" width="151" height="29" rx="3"></rect>
                            </g>
                        </g>
                        <g id="Group" stroke="none" stroke-width="1" fill="none" fill-rule="evenodd" sketch:type="MSLayerGroup" transform="translate(91.000000, 81.000000)">
                            <g stroke="#44C7F4" id="Rectangle-30" fill="#D8F3FD" sketch:type="MSShapeGroup">
                                <rect x="0" y="0" width="128" height="51" rx="3"></rect>
                            </g>
                        </g>
                        <path d="M0.5,25.5 L246.5,25.5" id="Line" stroke="#EBEBEB" stroke-width="1" stroke-linecap="square" fill="none" sketch:type="MSShapeGroup"></path>
                    </g>
                </g>
            </g>
            <rect id="Rectangle-38" stroke="#9B9B9B" opacity="0.356459888" sketch:type="MSShapeGroup" x="54" y="81" width="29" height="2"></rect>
            <rect id="Rectangle-39" stroke="#9B9B9B" opacity="0.356459888" sketch:type="MSShapeGroup" x="54" y="91" width="29" height="2"></rect>
            <rect id="Rectangle-40" stroke="#9B9B9B" opacity="0.356459888" sketch:type="MSShapeGroup" x="54" y="101" width="29" height="2"></rect>
            <rect id="Rectangle-41" stroke="#9B9B9B" opacity="0.356459888" sketch:type="MSShapeGroup" x="54" y="111" width="29" height="2"></rect>
            <rect id="Rectangle-42" stroke="#9B9B9B" opacity="0.356459888" sketch:type="MSShapeGroup" x="54" y="121" width="29" height="2"></rect>
            <rect id="Rectangle-43" stroke="#9B9B9B" opacity="0.356459888" sketch:type="MSShapeGroup" x="54" y="131" width="29" height="2"></rect>
            <rect id="Rectangle-44" stroke="#9B9B9B" opacity="0.356459888" sketch:type="MSShapeGroup" x="54" y="141" width="29" height="2"></rect>
            <rect id="Rectangle-45" stroke="#9B9B9B" opacity="0.356459888" sketch:type="MSShapeGroup" x="54" y="151" width="29" height="2"></rect>
            <path d="M111.932,86 L111.932,82.82 L114.152,82.82 C115.736,82.82 116.66,81.716 116.66,80.408 C116.66,79.1 115.76,77.996 114.152,77.996 L110.936,77.996 L110.936,86 L111.932,86 Z M114.032,81.932 L111.932,81.932 L111.932,78.884 L114.032,78.884 C114.98,78.884 115.628,79.508 115.628,80.408 C115.628,81.308 114.98,81.932 114.032,81.932 L114.032,81.932 Z M120.32,86.144 C122.084,86.144 123.188,84.776 123.188,83.096 C123.188,81.416 122.084,80.06 120.32,80.06 C118.556,80.06 117.452,81.416 117.452,83.096 C117.452,84.776 118.556,86.144 120.32,86.144 L120.32,86.144 Z M120.32,85.34 C119.084,85.34 118.388,84.284 118.388,83.096 C118.388,81.92 119.084,80.864 120.32,80.864 C121.556,80.864 122.24,81.92 122.24,83.096 C122.24,84.284 121.556,85.34 120.32,85.34 L120.32,85.34 Z M126.488,86.144 C127.988,86.144 128.768,85.364 128.768,84.392 C128.768,82.136 125.18,82.976 125.18,81.704 C125.18,81.188 125.672,80.792 126.464,80.792 C127.208,80.792 127.844,81.104 128.192,81.524 L128.612,80.9 C128.144,80.432 127.448,80.06 126.464,80.06 C125.084,80.06 124.304,80.828 124.304,81.728 C124.304,83.876 127.892,83.012 127.892,84.416 C127.892,84.992 127.412,85.412 126.524,85.412 C125.732,85.412 125,85.028 124.616,84.584 L124.148,85.232 C124.736,85.856 125.54,86.144 126.488,86.144 L126.488,86.144 Z M131.696,86.144 C132.224,86.144 132.548,85.988 132.776,85.772 L132.512,85.1 C132.392,85.232 132.152,85.34 131.9,85.34 C131.504,85.34 131.312,85.028 131.312,84.596 L131.312,80.996 L132.488,80.996 L132.488,80.204 L131.312,80.204 L131.312,78.62 L130.412,78.62 L130.412,80.204 L129.452,80.204 L129.452,80.996 L130.412,80.996 L130.412,84.788 C130.412,85.652 130.844,86.144 131.696,86.144 L131.696,86.144 Z M141.656,86 L141.656,81.812 C141.656,80.648 141.092,80.06 140.036,80.06 C139.196,80.06 138.416,80.612 138.092,81.14 C137.924,80.54 137.42,80.06 136.532,80.06 C135.68,80.06 134.9,80.672 134.66,81.044 L134.66,80.204 L133.76,80.204 L133.76,86 L134.66,86 L134.66,81.764 C134.972,81.296 135.596,80.864 136.184,80.864 C136.94,80.864 137.252,81.332 137.252,82.064 L137.252,86 L138.152,86 L138.152,81.752 C138.452,81.296 139.088,80.864 139.688,80.864 C140.432,80.864 140.756,81.332 140.756,82.064 L140.756,86 L141.656,86 Z M147.98,86 L147.98,82.016 C147.98,80.612 146.96,80.06 145.736,80.06 C144.788,80.06 144.044,80.372 143.42,81.02 L143.84,81.644 C144.356,81.092 144.92,80.84 145.616,80.84 C146.456,80.84 147.08,81.284 147.08,82.064 L147.08,83.108 C146.612,82.568 145.952,82.316 145.16,82.316 C144.176,82.316 143.132,82.928 143.132,84.224 C143.132,85.484 144.176,86.144 145.16,86.144 C145.94,86.144 146.6,85.868 147.08,85.34 L147.08,86 L147.98,86 Z M145.484,85.496 C144.644,85.496 144.056,84.968 144.056,84.236 C144.056,83.492 144.644,82.964 145.484,82.964 C146.12,82.964 146.732,83.204 147.08,83.684 L147.08,84.776 C146.732,85.256 146.12,85.496 145.484,85.496 L145.484,85.496 Z M154.592,86 L154.592,81.932 C154.592,80.672 153.956,80.06 152.744,80.06 C151.88,80.06 151.088,80.564 150.68,81.044 L150.68,80.204 L149.78,80.204 L149.78,86 L150.68,86 L150.68,81.764 C151.016,81.296 151.688,80.864 152.396,80.864 C153.176,80.864 153.692,81.188 153.692,82.208 L153.692,86 L154.592,86 Z" fill="#4A4A4A" sketch:type="MSShapeGroup"></path>
            <text id="{" opacity="0.83698694" sketch:type="MSTextLayer" font-family="Monaco" font-size="8" font-weight="normal" line-spacing="8.8" fill="#0A86B1">
                <tspan x="119" y="122">{</tspan>
                <tspan x="123.878906" y="132.249219"></tspan>
                <tspan x="119" y="141.267969">}</tspan>
            </text>
            <text id="-id-:-1234" opacity="0.83698694" sketch:type="MSTextLayer" font-family="Monaco" font-size="8" font-weight="normal" fill="#0A86B1">
                <tspan x="131" y="134"> id : 1234</tspan>
            </text>
            <g id="Group-3" transform="translate(131.000000, 126.000000)" stroke-width="0.5" stroke="#0A86B1" fill="#D8D8D8" sketch:type="MSShapeGroup">
                <g id="Group-2">
                    <rect id="Rectangle-33" x="0" y="0" width="0.857142857" height="3"></rect>
                    <rect id="Rectangle-33" x="2.14285714" y="0" width="0.857142857" height="3"></rect>
                </g>
                <g id="Group-2" transform="translate(16.000000, 0.000000)">
                    <rect id="Rectangle-33" x="0" y="0" width="0.857142857" height="3"></rect>
                    <rect id="Rectangle-33" x="2.14285714" y="0" width="0.857142857" height="3"></rect>
                </g>
            </g>
        </g>
    </g>
</svg>